<svg width="25" height="24" viewBox="0 0 25 24" fill="none" xmlns="http://www.w3.org/2000/svg">
<g id="New">
<path id="Vector" d="M8.60308 13.9352C8.29187 13.9352 8.02342 13.7219 7.9599 13.4243C7.44016 10.9996 5.50225 9.10472 3.02302 8.59652C2.71861 8.53402 2.50049 8.27152 2.50049 7.96762C2.50049 7.66371 2.71861 7.40082 3.02302 7.33871C5.50264 6.83051 7.44056 4.93558 7.9603 2.51136C8.02422 2.21371 8.29267 2.00043 8.60388 2.00043C8.91508 2.00043 9.18353 2.21371 9.24705 2.51136C9.76679 4.93597 11.7047 6.8309 14.184 7.3391C14.4884 7.4016 14.7065 7.6641 14.7065 7.96801C14.7065 8.27191 14.4884 8.5348 14.184 8.59691C11.7043 9.10511 9.76639 11 9.24665 13.4243C9.18273 13.7219 8.91388 13.9352 8.60308 13.9352Z" fill="url(#paint0_linear_30_1349)"/>
<path id="Vector_2" d="M10.9919 22C10.6807 22 10.4123 21.7867 10.3488 21.4891C10.1039 20.3469 9.19064 19.4539 8.02253 19.2144C7.71812 19.1519 7.5 18.8894 7.5 18.5855C7.5 18.2816 7.71812 18.0187 8.02253 17.9566C9.19064 17.7172 10.1039 16.8246 10.3488 15.682C10.4127 15.3844 10.6811 15.1711 10.9919 15.1711C11.3031 15.1711 11.5716 15.3844 11.6351 15.682C11.88 16.8242 12.7932 17.7172 13.9613 17.9566C14.2657 18.0191 14.4839 18.2816 14.4839 18.5855C14.4839 18.8894 14.2657 19.1523 13.9613 19.2144C12.7932 19.4539 11.88 20.3469 11.6351 21.4891C11.5712 21.7867 11.3027 22 10.9919 22Z" fill="url(#paint1_linear_30_1349)"/>
<path id="Vector_3" d="M18.5 17.9996C18.2112 17.9996 17.962 17.7972 17.903 17.5147C17.5957 16.049 16.4503 14.9037 14.985 14.5967C14.7024 14.5374 14.5 14.2883 14.5 13.9998C14.5 13.7114 14.7024 13.4618 14.985 13.4029C16.4507 13.0955 17.596 11.9502 17.903 10.485C17.9624 10.2024 18.2115 10 18.5 10C18.7888 10 19.038 10.2024 19.097 10.485C19.4043 11.9506 20.5497 13.0959 22.015 13.4033C22.2976 13.4626 22.5 13.7117 22.5 14.0002C22.5 14.2886 22.2976 14.5382 22.015 14.5971C20.5497 14.9041 19.404 16.0498 19.0966 17.515C19.0373 17.7976 18.7885 17.9996 18.5 17.9996Z" fill="url(#paint2_linear_30_1349)"/>
</g>
<defs>
<linearGradient id="paint0_linear_30_1349" x1="8.60348" y1="2.00043" x2="8.60348" y2="13.9352" gradientUnits="userSpaceOnUse">
<stop stop-color="#FFB31F"/>
<stop offset="1" stop-color="#FFDE9E"/>
</linearGradient>
<linearGradient id="paint1_linear_30_1349" x1="10.9919" y1="15.1711" x2="10.9919" y2="22" gradientUnits="userSpaceOnUse">
<stop stop-color="#FFB31F"/>
<stop offset="1" stop-color="#FFDE9E"/>
</linearGradient>
<linearGradient id="paint2_linear_30_1349" x1="18.5" y1="10" x2="18.5" y2="18" gradientUnits="userSpaceOnUse">
<stop stop-color="#FFB31F"/>
<stop offset="1" stop-color="#FFDE9E"/>
</linearGradient>
</defs>
</svg>